# AST/ASF file generated using VICON BodyLanguage
# -----------------------------------------------
:version 1.10
:name VICON
:units
  mass 1.0
  length 0.45
  angle deg
:documentation
   .ast/.asf automatically generated from VICON data using
   VICON BodyBuilder and BodyLanguage model FoxedUp or BRILLIANT.MOD
:root
   order TX TY TZ RX RY RZ
   axis XYZ
   position 0 0 0  
   orientation 0 0 0 
:bonedata
  begin
     id 1 
     name lhipjoint
     direction 0.645422 -0.672597 0.361999 
     length 2.39934 
     axis 0 0 0  XYZ
  end
  begin
     id 2 
     name lfemur
     direction 0.34202 -0.939693 0  
     length 6.58112  
     axis 0 0 20  XYZ
    dof rx ry rz
    limits (-160.0 20.0)
           (-70.0 70.0)
           (-60.0 70.0)
  end
  begin
     id 3 
     name ltibia
     direction 0.34202 -0.939693 0   
     length 7.02673   
     axis 0 0 20   XYZ
    dof rx
    limits (-10.0 170.0)
  end
  begin
     id 4 
     name lfoot
     direction 0.0835106 -0.229444 0.969733   
     length 2.08772   
     axis -90 7.62852e-016 20   XYZ
    dof rx rz
    limits (-45.0 90.0)
           (-70.0 20.0)
  end
  begin
     id 5 
     name ltoes
     direction 1.5358e-011 -4.21925e-011 1   
     length 1.04844   
     axis -90 7.62852e-016 20   XYZ
    dof rx
    limits (-90.0 20.0)
  end
  begin
     id 6 
     name rhipjoint
     direction -0.644959 -0.672941 0.362185   
     length 2.39812  
     axis 0 0 0  XYZ 
  end
  begin
     id 7 
     name rfemur
     direction -0.34202 -0.939693 0   
     length 6.67015   
     axis 0 0 -20   XYZ
    dof rx ry rz
    limits (-160.0 20.0)
           (-70.0 70.0)
           (-70.0 60.0)
  end
  begin
     id 8 
     name rtibia
     direction -0.34202 -0.939693 0   
     length 7.35735   
     axis 0 0 -20   XYZ
    dof rx
    limits (-10.0 170.0)
 end
 begin
     id 9 
     name rfoot
     direction -0.0670769 -0.184292 0.98058   
     length 2.25469  
     axis -90 -7.62852e-016 -20   XYZ
    dof rx rz
    limits (-45.0 90.0)
           (-20.0 70.0)
  end
  begin
     id 10 
     name rtoes
     direction -1.53575e-011 -4.21908e-011 1   
     length 1.13399   
     axis -90 -7.62852e-016 -20   XYZ
    dof rx
    limits (-90.0 20.0)
  end
  begin
     id 11 
     name lowerback
     direction -0.0188328 0.993434 -0.112847   
     length 2.27656   
     axis 0 0 0   XYZ
    dof rx ry rz
    limits (-20.0 45.0)
           (-30.0 30.0)
           (-30.0 30.0)
  end
  begin
     id 12 
     name upperback
     direction 0.00983139 0.998968 -0.04435   
     length 2.28631   
     axis 0 0 0   XYZ
    dof rx ry rz
    limits (-20.0 45.0)
           (-30.0 30.0)
           (-30.0 30.0)
  end
  begin
     id 13 
     name thorax
     direction 0.0177718 0.999807 0.00833073   
     length 2.30999   
     axis 0 0 0   XYZ
    dof rx ry rz
    limits (-20.0 45.0)
           (-30.0 30.0)
           (-30.0 30.0)
  end
  begin
     id 14 
     name lowerneck
     direction -0.0835025 0.993181 0.0813558   
     length 1.39447   
     axis 0 0 0   XYZ
    dof rx ry rz
    limits (-20.0 45.0)
           (-30.0 30.0)
           (-30.0 30.0)
  end
  begin
     id 15 
     name upperneck
     direction 0.210059 0.976535 0.0474817   
     length 1.39882   
     axis 0 0 0   XYZ
    dof rx ry rz
    limits (-20.0 45.0)
           (-30.0 30.0)
           (-30.0 30.0)
  end
  begin
     id 16
     name head
     direction 0.0780891 0.996944 -0.00207154  
     length 1.41828  
     axis 0 0 0   XYZ
    dof rx ry rz
    limits (-20.0 45.0)
           (-30.0 30.0)
           (-30.0 30.0)
  end
  begin
     id 17 
     name lclavicle
     direction 0.982414 0.166355 -0.0847829  
     length 3.57922  
     axis 0 0 0   XYZ
    dof ry rz
    limits (-20.0 10.0)
           (0.0 20.0)
  end
  begin
     id 18 
     name lhumerus
     direction 1 -4.48975e-011 5.47647e-028   
     length 4.76405   
     axis -180 -30 -90   XYZ
    dof rx ry rz
    limits (-60.0 90.0)
           (-90.0 90.0)
           (-90.0 90.0)
  end
  begin
     id 19
     name lradius
     direction 1 -4.48949e-011 -8.32142e-027   
     length 3.13759   
     axis -180 -30 -90   XYZ
    dof rx
    limits (-10.0 170.0)
  end
  begin
     id 20
     name lwrist
     direction 1 -4.48978e-011 -1.32705e-026   
     length 1.56879   
     axis 9.60836e-015 90 90   XYZ
    dof ry
    limits (-180.0 0.0)
 end
  begin
     id 21 
     name lhand
     direction 1 -4.48975e-011 -2.65409e-026   
     length 0.732262   
     axis 1.69354e-014 90 90   XYZ
    dof rx rz
    limits (-90.0 90.0)
           (-45.0 45.0)
  end
  begin
     id 22 
     name lfingers
     direction 1 -4.48923e-011 -5.30819e-026   
     length 0.590368   
     axis 3.38708e-014 90 90   XYZ
    dof rx
    limits (0.0 90.0)
  end
  begin
     id 23
     name lthumb
     direction 0.707107 -6.34914e-011 0.707107   
     length 0.847654   
     axis -90 45 2.85299e-015   XYZ
    dof rx rz
    limits (-45.0 45.0)
           (-45.0 45.0)
  end
  begin
     id 24 
     name rclavicle
     direction -0.963658 0.245183 -0.106063   
     length 3.43472  
     axis 0 0 0   XYZ 
    dof ry rz
    limits (-10.0 20.0)
           (-20.0 0.0)
  end
  begin
     id 25 
     name rhumerus
     direction -1 -4.48963e-011 -1.64784e-027  
     length 5.10161   
     axis -180 30 90   XYZ
    dof rx ry rz
    limits (-90.0 60.0)
           (-90.0 90.0)
           (-90.0 90.0)
  end
  begin
     id 26 
     name rradius
     direction -1 -4.48969e-011 -2.87943e-027   
     length 3.23267   
     axis -180 30 90   XYZ
    dof rx
    limits (-10.0 170.0)
  end
  begin
     id 27 
     name rwrist
     direction -1 -4.48982e-011 -1.32705e-026   
     length 1.61633   
     axis 9.60836e-015 -90 -90   XYZ
    dof ry
    limits (-180.0 0.0)
  end
  begin
     id 28
     name rhand
     direction -1 -4.48963e-011 -2.65409e-026   
     length 0.702   
     axis 1.69354e-014 -90 -90   XYZ
    dof rx rz
    limits (-90.0 90.0)
           (-45.0 45.0)
  end
  begin
     id 29
     name rfingers
     direction -1 -4.48934e-011 -5.30819e-026   
     length 0.565971   
     axis 3.38708e-014 -90 -90   XYZ
    dof rx
    limits (0.0 90.0)
  end
  begin
     id 30
     name rthumb
     direction -0.707107 -6.34908e-011 0.707107   
     length 0.812624   
     axis -90 -45 -2.85299e-015   XYZ
    dof rx rz
    limits (-45.0 45.0)
           (-45.0 45.0)
  end
:hierarchy
  begin
    root lhipjoint rhipjoint lowerback
    lhipjoint lfemur
    lfemur ltibia
    ltibia lfoot
    lfoot ltoes
    rhipjoint rfemur
    rfemur rtibia
    rtibia rfoot
    rfoot rtoes
    lowerback upperback
    upperback thorax
    thorax lowerneck lclavicle rclavicle
    lowerneck upperneck
    upperneck head
    lclavicle lhumerus
    lhumerus lradius
    lradius lwrist
    lwrist lhand lthumb
    lhand lfingers
    rclavicle rhumerus
    rhumerus rradius
    rradius rwrist
    rwrist rhand rthumb
    rhand rfingers
  end

#!OML:ASF E:\basketball\basketball\Project 1\Capture day 1\Session 1\Subject.ASF
:FULLY-SPECIFIED
:DEGREES
82
root -33.0687 14.6875 -16.4668 5.44191 53.0666 -7.20963
lowerback 15.7808 0.120106 5.80234
upperback 8.13046 1.33793 4.40835
thorax -0.174647 0.870977 1.15276
lowerneck -17.5423 3.14636 -20.7719
upperneck -1.07454 8.09295 17.904
head 0.966943 4.90039 9.48124
rclavicle 8.11041e-014 -2.38542e-015
rhumerus -6.25735 10.8252 -92.9114
rradius 112.923
rwrist 0.183424
rhand -34.2246 13.4938
rfingers 7.12502
rthumb -7.39636 -16.3569
lclavicle 8.11041e-014 -2.38542e-015
lhumerus -43.111 2.84868 98.5934
lradius 39.0936
lwrist 29.8625
lhand -3.13585 27.4216
lfingers 7.12502
lthumb 22.5836 56.1206
rfemur -9.30336 -8.96623 11.2437
rtibia 41.5774
rfoot -38.0542 -4.4597
rtoes -21.3498
lfemur -38.9232 19.8466 -19.1859
ltibia 80.2617
lfoot -19.1578 5.18495
ltoes 4.87697
83
root -32.9223 14.6421 -16.4652 5.56101 52.9687 -7.42771
lowerback 16.1408 0.134235 5.7263
upperback 8.28193 1.37647 4.41918
thorax -0.203872 0.891632 1.19892
lowerneck -17.1638 3.26269 -20.5017
upperneck -1.72472 8.2027 17.7847
head 0.713679 4.95072 9.36481
rclavicle -6.91771e-014 4.77083e-014
rhumerus -4.75238 13.4743 -92.9745
rradius 112.999
rwrist 4.94177
rhand -33.0803 14.1373
rfingers 7.12502
rthumb -6.2917 -15.7493
lclavicle -6.91771e-014 4.77083e-014
lhumerus -43.8391 3.85679 97.662
lradius 36.3094
lwrist 29.9375
lhand -2.94945 27.6953
lfingers 7.12502
lthumb 22.7625 56.3724
rfemur -8.8787 -8.71323 10.9825
rtibia 41.0885
rfoot -38.005 -4.77844
rtoes -23.4177
lfemur -40.5505 20.5172 -18.6119
ltibia 81.3195
lfoot -18.8334 5.73838
ltoes 2.86183
84
root -32.7679 14.6093 -16.4552 5.58634 52.5427 -7.71287
lowerback 16.6114 0.298956 4.9743
upperback 8.48626 1.53913 4.88321
thorax -0.265917 0.946878 2.0816
lowerneck -17.4547 3.28674 -21.2197
upperneck -1.84996 8.46043 17.8901
head 0.635151 5.10519 9.53257
rclavicle 2.14687e-014 9.78021e-014
rhumerus -2.8623 16.6699 -92.1615
rradius 112.725
rwrist 9.18563
rhand -31.6541 14.7481
rfingers 7.12502
rthumb -4.91475 -15.1749
lclavicle 2.14687e-014 9.78021e-014
lhumerus -44.2795 6.56272 96.3647
lradius 33.2295
lwrist 31.347
lhand -3.29335 28.2207
lfingers 7.12502
lthumb 22.4324 56.938
rfemur -8.35473 -8.54869 10.6702
rtibia 40.4471
rfoot -38.0177 -4.02174
rtoes -22.9691
lfemur -41.8331 21.7017 -17.9211
ltibia 82.1754
lfoot -18.8876 5.61446
ltoes 2.7974
85
root -32.6113 14.5596 -16.4464 5.56899 52.4442 -8.02222
lowerback 16.951 0.531112 4.95031
upperback 8.62917 1.86004 4.80063
thorax -0.289207 1.10996 1.95217
lowerneck -17.153 3.23178 -20.8248
upperneck -2.34527 8.30875 17.91
head 0.494304 5.02936 9.45169
rclavicle -6.99722e-014 1.59028e-014
rhumerus -1.10108 18.5134 -91.8993
rradius 112.112
rwrist 13.5524
rhand -30.1327 15.2852
rfingers 7.12502
rthumb -3.44558 -14.6667
lclavicle -6.99722e-014 1.59028e-014
lhumerus -44.7358 9.50557 92.8823
lradius 30.4661
lwrist 32.5326
lhand -3.49205 29.8782
lfingers 7.12502
lthumb 22.2417 58.6184
rfemur -7.62065 -8.64772 10.3877
rtibia 39.6627
rfoot -37.7476 -3.01588
rtoes -21.0292
lfemur -43.2882 22.6817 -17.1805
ltibia 83.0326
lfoot -18.9224 5.22918
ltoes 2.77262
86
root -32.4453 14.5096 -16.4356 5.56545 52.6585 -8.42465
lowerback 17.0378 0.602998 4.76353
upperback 8.81512 1.93794 4.97074
thorax -0.147922 1.14695 2.22684
lowerneck -17.1489 3.15755 -20.908
upperneck -2.71879 8.27416 17.9234
head 0.389232 5.02495 9.46447
rclavicle -6.83819e-014 -2.78299e-014
rhumerus 0.49035 20.6316 -91.1538
rradius 110.911
rwrist 16.9047
rhand -28.6197 16.2131
rfingers 7.12502
rthumb -1.98444 -13.7575
lclavicle -6.83819e-014 -2.78299e-014
lhumerus -45.3399 11.6843 90.9418
lradius 27.8201
lwrist 30.7094
lhand -3.03897 30.1921
lfingers 7.12502
lthumb 22.6766 58.8798
rfemur -6.79628 -8.67622 10.2685
rtibia 38.6902
rfoot -37.4996 -2.8143
rtoes -20.4235
lfemur -44.9758 23.1457 -16.4832
ltibia 83.8303
lfoot -18.775 5.13432
ltoes 1.64207
87
root -32.2692 14.4697 -16.4184 5.50876 52.894 -8.89652
lowerback 17.1918 0.832973 4.3625
upperback 8.83846 2.2069 5.31236
thorax -0.234403 1.26294 2.76663
lowerneck -17.0243 3.03892 -21.155
upperneck -2.97513 8.16768 17.9502
head 0.30608 4.97642 9.50582
rclavicle 1.07344e-013 -2.22639e-014
rhumerus 1.45298 22.3249 -90.0784
rradius 109.336
rwrist 18.5636
rhand -27.1837 17.6588
rfingers 7.12502
rthumb -0.597501 -12.3201
lclavicle 1.07344e-013 -2.22639e-014
lhumerus -46.4333 11.1638 91.8107
lradius 25.8428
lwrist 26.1842
lhand -7.09183 29.9601
lfingers 7.12502
lthumb 18.7825 59.0733
rfemur -5.93708 -8.4458 10.2726
rtibia 37.5846
rfoot -37.4868 -3.88373
rtoes -22.9372
lfemur -46.5978 23.5049 -15.7941
ltibia 84.5025
lfoot -18.9567 4.90163
ltoes 2.57204
